<?xml version="1.0" encoding="utf-8"?>
<!-- Generator: Adobe Illustrator 24.0.1, SVG Export Plug-In . SVG Version: 6.00 Build 0)  -->
<svg version="1.1" xmlns="http://www.w3.org/2000/svg" xmlns:xlink="http://www.w3.org/1999/xlink" x="0px" y="0px"
	 viewBox="0 0 1000 1000" style="enable-background:new 0 0 1000 1000;" xml:space="preserve">
<style type="text/css">
	.st0{display:none;}
	.st1{display:inline;}
	.st2{fill:#0F1C50;}
	.st3{fill:#FFFFFF;}
</style>
<g id="source" class="st0">
	
		<image style="display:inline;overflow:visible;" width="240" height="240" xlink:href="../../Downloads/WWP Logo Candidate 3.jpeg"  transform="matrix(1 0 0 1 211 271)">
	</image>
</g>
<g id="original_spaced" class="st0">
	<g class="st1">
		<circle class="st2" cx="617" cy="391" r="116"/>
		<g>
			<path class="st3" d="M532,462c0,0,6-16,17-22s25.9-14.8,72,1c76,26,98-11,98-11c0,6-11,25-26,32s-41,12-72,2
				C574,448.9,561,444,532,462z"/>
			<path class="st3" d="M550.7,429.8c0,0,5.4-14.4,15.3-19.8s23.3-13.3,64.8,0.9c68.4,23.4,88.2-9.9,88.2-9.9
				c0,5.4-9.9,22.5-23.4,28.8c-13.5,6.3-36.9,10.8-64.8,1.8C588.5,418,576.8,413.6,550.7,429.8z"/>
			<path class="st3" d="M567.5,399.7c0,0,4.9-13,13.8-17.8c8.9-4.9,21-12,58.3,0.8c61.6,21.1,79.4-8.9,79.4-8.9
				c0,4.9-8.9,20.3-21.1,25.9c-12.2,5.7-33.2,9.7-58.3,1.6C601.6,389,591,385.1,567.5,399.7z"/>
			<path class="st3" d="M582.7,372.7c0,0,4.4-11.7,12.4-16c8-4.4,18.9-10.8,52.5,0.7c55.4,19,71.4-8,71.4-8c0,4.4-8,18.2-19,23.3
				s-29.9,8.7-52.5,1.5C613.3,363.1,603.8,359.6,582.7,372.7z"/>
		</g>
	</g>
</g>
<g id="final">
	<g>
		<circle class="st2" cx="500" cy="500" r="450"/>
		<g>
			<path class="st3" d="M170.3,775.4c0,0,23.3-62.1,65.9-85.3c42.7-23.3,100.5-57.3,279.3,3.9c294.8,100.9,380.2-42.7,380.2-42.7
				c0,23.3-42.7,97-100.9,124.1s-159.1,46.6-279.3,7.8C333.4,724.4,282.8,705.6,170.3,775.4z"/>
			<path class="st3" d="M242.8,650.4c0,0,20.9-55.9,59.4-76.8c38.4-20.9,90.5-51.5,251.4,3.5c265.3,90.8,342.2-38.4,342.2-38.4
				c0,20.9-38.4,87.3-90.8,111.7c-52.4,24.4-143.1,41.9-251.4,7C389.6,604.5,344.1,587.6,242.8,650.4z"/>
			<path class="st3" d="M308.1,533.7c0,0,18.9-50.3,53.4-69.1s81.4-46.4,226.2,3.1c238.8,81.7,307.9-34.6,307.9-34.6
				c0,18.9-34.6,78.6-81.7,100.6c-47.1,22-128.8,37.7-226.2,6.3C440.2,492.4,399.2,477.1,308.1,533.7z"/>
			<path class="st3" d="M366.9,429c0,0,17-45.2,48.1-62.2c31.1-17,73.3-41.8,203.6,2.8c214.9,73.5,277.1-31.1,277.1-31.1
				c0,17-31.1,70.7-73.5,90.5c-42.4,19.8-115.9,33.9-203.6,5.7C485.8,391.8,448.9,378.1,366.9,429z"/>
		</g>
	</g>
</g>
</svg>
